<?xml version="1.0" encoding="utf-8"?>
<!-- Generator: Adobe Illustrator 20.1.0, SVG Export Plug-In . SVG Version: 6.00 Build 0)  -->
<!DOCTYPE svg PUBLIC "-//W3C//DTD SVG 1.1//EN" "http://www.w3.org/Graphics/SVG/1.1/DTD/svg11.dtd">
<svg version="1.1"
	 id="Layer_1" shape-rendering="geometricPrecision" image-rendering="optimizeQuality" text-rendering="geometricPrecision"
	 xmlns="http://www.w3.org/2000/svg" xmlns:xlink="http://www.w3.org/1999/xlink" x="0px" y="0px" viewBox="0 0 252 180"
	 style="enable-background:new 0 0 252 180;" xml:space="preserve">
<style type="text/css">
	.st0{fill:#FFFFFF;}
	.st1{fill:#1F1A17;}
	.st2{font-family:'Arial-BoldMT';}
	.st3{font-size:9.9998px;}
	.st4{font-family:'MyriadPro-Regular';}
	.st5{fill:none;stroke:#1F1A17;stroke-width:0.6945;}
</style>
<rect class="st0" width="252" height="180"/>
<g id="Layer_x0020_1">
	<g id="_173414128">
		<text id="_175243176" transform="matrix(1 0 0 1 43.7617 26.4121)" class="st1 st2 st3">Contact</text>
		<text id="_137383824" transform="matrix(1 0 0 1 43.7617 39.8516)" class="st1 st4 st3">ID</text>
		<text id="_137383824_1_" transform="matrix(1 0 0 1 43.7617 51.0234)" class="st1 st4 st3">Name</text>
		<text id="_137383824_2_" transform="matrix(1 0 0 1 43.7617 62.1943)" class="st1 st4 st3">PhoneType_ID</text>
		<rect id="_135781520" x="31.8" y="15.9" class="st5" width="82.9" height="51.3"/>
		<line id="_135781360" class="st5" x1="31.8" y1="30" x2="114.6" y2="30"/>
		<text id="_173414152" transform="matrix(1 0 0 1 36.7656 41.8389)" class="st1 st4 st3">*</text>
	</g>
	<text transform="matrix(1 0 0 1 43.7617 93.6064)" class="st1 st2 st3">ContactPhone</text>
	<text transform="matrix(1 0 0 1 43.7617 107.0469)" class="st1 st4 st3">Contact_ID</text>
	<text transform="matrix(1 0 0 1 43.7617 118.2178)" class="st1 st4 st3">Type_ID</text>
	<text transform="matrix(1 0 0 1 43.7617 129.3892)" class="st1 st4 st3">Phone</text>
	<rect x="31.8" y="83" class="st5" width="90.6" height="51.3"/>
	<line class="st5" x1="31.8" y1="97.2" x2="122.4" y2="97.2"/>
	<text transform="matrix(1 0 0 1 36.7656 109.0332)" class="st1 st4 st3">*</text>
	<text transform="matrix(1 0 0 1 36.7656 119.5498)" class="st1 st4 st3">*</text>
	<g id="_172749392">
		<text id="_134896208" transform="matrix(1 0 0 1 155.9883 93.1113)" class="st1 st2 st3">ContactAddress</text>
		<text id="_136540048" transform="matrix(1 0 0 1 155.9883 106.5508)" class="st1 st4 st3">Contact_ID</text>
		<text id="_136540048_1_" transform="matrix(1 0 0 1 155.9883 117.7222)" class="st1 st4 st3">Number</text>
		<text id="_136540048_2_" transform="matrix(1 0 0 1 155.9883 128.8936)" class="st1 st4 st3">Street</text>
		<text id="_136540048_3_" transform="matrix(1 0 0 1 155.9883 140.0654)" class="st1 st4 st3">City</text>
		<text id="_136540048_4_" transform="matrix(1 0 0 1 155.9883 151.2363)" class="st1 st4 st3">State_ID</text>
		<text id="_136540048_5_" transform="matrix(1 0 0 1 155.9883 162.4077)" class="st1 st4 st3">ZipCode</text>
		<rect id="_138094976" x="144" y="82.6" class="st5" width="95.4" height="84.5"/>
		<line id="_138094928" class="st5" x1="144" y1="96.7" x2="239.4" y2="96.7"/>
		<text id="_175174256" transform="matrix(1 0 0 1 148.9932 108.5381)" class="st1 st4 st3">*</text>
		<text id="_172692128" transform="matrix(1 0 0 1 148.9932 119.5498)" class="st1 st4 st3">*</text>
	</g>
	<g>
		<path class="st1" d="M11.7,103.1l0.3-0.3h19.7v0.5H12C12,103.4,11.7,103.1,11.7,103.1z M12,103.4h-0.3v-0.3L12,103.4z M12,35.2
			l0.3,0.3v67.6h-0.5V35.5C11.7,35.5,12,35.2,12,35.2z M11.7,35.5v-0.3H12L11.7,35.5z M27.3,35.7H12v-0.5h15.3V35.7z M26.9,32.9
			l4.8,2.6l-4.8,2.6V32.9z"/>
	</g>
	<g>
		<path class="st1" d="M136.4,102.2l0.3-0.3h7.2v0.5h-7.2L136.4,102.2z M136.7,102.4h-0.3v-0.3L136.7,102.4z M136.7,72.5l0.3,0.3
			v29.4h-0.5V72.8C136.4,72.8,136.7,72.5,136.7,72.5z M136.7,72.5h0.3v0.3L136.7,72.5z M21.3,72.8l0.2-0.3h115.1V73H21.6
			C21.6,73,21.3,72.8,21.3,72.8z M21.6,73h-0.2v-0.3L21.6,73z M21.6,37.7l0.2,0.3v34.9h-0.5V37.9C21.3,37.9,21.6,37.7,21.6,37.7z
			 M21.3,37.9v-0.3h0.2L21.3,37.9z M27.3,38.2h-5.7v-0.5h5.7V38.2z M26.9,35.3l4.8,2.6l-4.8,2.6V35.3z"/>
	</g>
</g>
</svg>
