<?xml version="1.0" encoding="utf-8"?>
<!-- Generator: Adobe Illustrator 20.1.0, SVG Export Plug-In . SVG Version: 6.00 Build 0)  -->
<!DOCTYPE svg PUBLIC "-//W3C//DTD SVG 1.1//EN" "http://www.w3.org/Graphics/SVG/1.1/DTD/svg11.dtd">
<svg version="1.1"
	 id="Layer_1" shape-rendering="geometricPrecision" image-rendering="optimizeQuality" text-rendering="geometricPrecision"
	 xmlns="http://www.w3.org/2000/svg" xmlns:xlink="http://www.w3.org/1999/xlink" x="0px" y="0px" viewBox="0 0 180 216"
	 style="enable-background:new 0 0 180 216;" xml:space="preserve">
<style type="text/css">
	.st0{fill:#FFFFFF;}
	.st1{fill:#1F1A17;}
	.st2{font-family:'Arial-BoldMT';}
	.st3{font-size:9.9998px;}
	.st4{font-family:'MyriadPro-Regular';}
	.st5{fill:none;stroke:#1F1A17;stroke-width:0.6945;}
</style>
<rect class="st0" width="180" height="216"/>
<g id="Layer_x0020_1">
	<g id="_175522712">
		<text id="_137339856" transform="matrix(1 0 0 1 61.9941 35.7734)" class="st1 st2 st3">Contact</text>
		<text id="_136524904" transform="matrix(1 0 0 1 61.9941 49.2134)" class="st1 st4 st3">ID</text>
		<text id="_136524904_1_" transform="matrix(1 0 0 1 61.9941 60.3848)" class="st1 st4 st3">Name</text>
		<text id="_136524904_2_" transform="matrix(1 0 0 1 61.9941 71.5557)" class="st1 st4 st3">PhoneType_ID</text>
		<rect id="_137025400" x="50" y="25.2" class="st5" width="82.9" height="51.3"/>
		<line id="_137025176" class="st5" x1="50" y1="39.4" x2="132.9" y2="39.4"/>
		<text id="_137476616" transform="matrix(1 0 0 1 54.999 51.2002)" class="st1 st4 st3">*</text>
	</g>
	<g id="_137282968">
		<text id="_136056752" transform="matrix(1 0 0 1 71.5938 93.3691)" class="st1 st2 st3">Vendor</text>
		<text id="_135748040" transform="matrix(1 0 0 1 71.5938 106.8086)" class="st1 st4 st3">ID</text>
		<text id="_135748040_1_" transform="matrix(1 0 0 1 71.5938 117.98)" class="st1 st4 st3">Address</text>
		<text id="_135748040_2_" transform="matrix(1 0 0 1 71.5938 129.1514)" class="st1 st4 st3">ShippingRate</text>
		<rect id="_136497824" x="59.6" y="82.8" class="st5" width="82.9" height="51.3"/>
		<line id="_136497376" class="st5" x1="59.6" y1="97" x2="142.5" y2="97"/>
		<text id="_137283328" transform="matrix(1 0 0 1 64.5981 108.7959)" class="st1 st4 st3">*</text>
	</g>
	<g id="_135868904">
		<text id="_137349552" transform="matrix(1 0 0 1 71.3115 149.7646)" class="st1 st2 st3">Customer</text>
		<text id="_173297416" transform="matrix(1 0 0 1 71.3115 163.2041)" class="st1 st4 st3">ID</text>
		<text id="_173297416_1_" transform="matrix(1 0 0 1 71.3115 174.3755)" class="st1 st4 st3">Shipping_Address</text>
		<text id="_173297416_2_" transform="matrix(1 0 0 1 71.3115 185.5469)" class="st1 st4 st3">Billing_Address</text>
		<rect id="_172708688" x="59.3" y="139.2" class="st5" width="95.4" height="51.3"/>
		<line id="_172708256" class="st5" x1="59.3" y1="153.4" x2="154.7" y2="153.4"/>
		<text id="_136682056" transform="matrix(1 0 0 1 64.3164 165.1914)" class="st1 st4 st3">*</text>
	</g>
	<g>
		<path class="st1" d="M34.5,102.8l0.3-0.3h24.5v0.5H34.8L34.5,102.8z M34.8,103.1h-0.2v-0.3L34.8,103.1z M34.8,44.3l0.3,0.3v58.3
			h-0.5V44.5L34.8,44.3z M34.5,44.5v-0.2h0.3L34.5,44.5z M45.3,44.8H34.8v-0.5h10.5V44.8z M44.9,41.9l4.8,2.6l-4.8,2.6V41.9z"/>
	</g>
	<g>
		<path class="st1" d="M25.1,159.5l0.2-0.3h33.8v0.5H25.4L25.1,159.5z M25.4,159.8h-0.2v-0.3L25.4,159.8z M25.4,44.6l0.2,0.3v114.6
			h-0.5V44.9L25.4,44.6z M25.1,44.9v-0.3h0.2L25.1,44.9z M45.5,45.1H25.4v-0.5h20.2L45.5,45.1L45.5,45.1z M45.1,42.2l4.8,2.6
			l-4.8,2.6V42.2z"/>
	</g>
</g>
</svg>
