<?xml version="1.0" encoding="utf-8"?>
<!-- Generator: Adobe Illustrator 20.1.0, SVG Export Plug-In . SVG Version: 6.00 Build 0)  -->
<!DOCTYPE svg PUBLIC "-//W3C//DTD SVG 1.1//EN" "http://www.w3.org/Graphics/SVG/1.1/DTD/svg11.dtd">
<svg version="1.1"
	 id="Layer_1" shape-rendering="geometricPrecision" image-rendering="optimizeQuality" text-rendering="geometricPrecision"
	 xmlns="http://www.w3.org/2000/svg" xmlns:xlink="http://www.w3.org/1999/xlink" x="0px" y="0px" viewBox="0 0 144 180"
	 style="enable-background:new 0 0 144 180;" xml:space="preserve">
<style type="text/css">
	.st0{fill:#FFFFFF;}
	.st1{fill:#1F1A17;}
	.st2{font-family:'Arial-BoldMT';}
	.st3{font-size:9.9998px;}
	.st4{font-family:'MyriadPro-Regular';}
	.st5{fill:none;stroke:#1F1A17;stroke-width:0.6945;}
</style>
<rect class="st0" width="144" height="180"/>
<g id="Layer_x0020_1">
	<g id="_175798696">
		<text id="_175823840" transform="matrix(1 0 0 1 46.1611 22.1079)" class="st1 st2 st3">Invoice</text>
		<text id="_175820784" transform="matrix(1 0 0 1 46.1611 35.5479)" class="st1 st4 st3">ID</text>
		<text id="_175820784_1_" transform="matrix(1 0 0 1 46.1611 46.7188)" class="st1 st4 st3">Location_ID</text>
		<text id="_175820784_2_" transform="matrix(1 0 0 1 46.1611 57.8906)" class="st1 st4 st3">User_ID</text>
		<text id="_175820784_3_" transform="matrix(1 0 0 1 46.1611 69.0615)" class="st1 st4 st3">Status_ID</text>
		<text id="_175820784_4_" transform="matrix(1 0 0 1 46.1611 80.2334)" class="st1 st4 st3">Date</text>
		<rect id="_175820312" x="34.2" y="11.5" class="st5" width="82.9" height="71.3"/>
		<line id="_175819680" class="st5" x1="34.2" y1="25.7" x2="117" y2="25.7"/>
		<text id="_175798976" transform="matrix(1 0 0 1 39.166 37.5347)" class="st1 st4 st3">*</text>
	</g>
	<g id="_175677184">
		<text id="_176103040" transform="matrix(1 0 0 1 55.7607 97.335)" class="st1 st2 st3">SaleOrder</text>
		<text id="_176101352" transform="matrix(1 0 0 1 55.7607 110.7744)" class="st1 st4 st3">ID</text>
		<text id="_176101352_1_" transform="matrix(1 0 0 1 55.7607 121.9458)" class="st1 st4 st3">Customer_ID</text>
		<rect id="_176100880" x="43.8" y="86.8" class="st5" width="82.9" height="39.2"/>
		<line id="_175837056" class="st5" x1="43.8" y1="100.9" x2="126.6" y2="100.9"/>
		<text id="_175677408" transform="matrix(1 0 0 1 48.7646 112.7617)" class="st1 st4 st3">*</text>
	</g>
	<g id="_137194960">
		<text id="_136390800" transform="matrix(1 0 0 1 55.4785 141.7305)" class="st1 st2 st3">PurchaseOrder</text>
		<text id="_175604080" transform="matrix(1 0 0 1 55.4785 155.1709)" class="st1 st4 st3">ID</text>
		<text id="_175604080_1_" transform="matrix(1 0 0 1 55.4785 166.3423)" class="st1 st4 st3">Vendor_ID</text>
		<rect id="_175603784" x="43.5" y="131.2" class="st5" width="95.4" height="40.1"/>
		<line id="_175079312" class="st5" x1="43.5" y1="145.3" x2="138.9" y2="145.3"/>
		<text id="_137195240" transform="matrix(1 0 0 1 48.4829 157.1582)" class="st1 st4 st3">*</text>
	</g>
	<g>
		<path class="st1" d="M18.7,106.8l0.3-0.3h24.5v0.5H18.9C18.9,107.1,18.7,106.8,18.7,106.8z M18.9,107.1h-0.2v-0.3
			C18.7,106.8,18.9,107.1,18.9,107.1z M18.9,30.6l0.3,0.3v76h-0.5v-76C18.7,30.8,18.9,30.6,18.9,30.6z M18.7,30.8v-0.3H19L18.7,30.8
			z M29.4,31.1H18.9v-0.5h10.5V31.1z M29,28.2l4.8,2.6L29,33.5V28.2z"/>
	</g>
	<g>
		<path class="st1" d="M9.3,151.2l0.2-0.3h33.8v0.5H9.6C9.6,151.5,9.3,151.2,9.3,151.2z M9.6,151.5H9.3v-0.3L9.6,151.5z M9.6,30.9
			l0.2,0.3v120H9.3v-120C9.3,31.2,9.6,30.9,9.6,30.9z M9.3,31.2v-0.3h0.2L9.3,31.2z M29.7,31.4H9.6v-0.5h20.2v0.5H29.7z M29.3,28.6
			l4.8,2.6l-4.8,2.6V28.6z"/>
	</g>
</g>
</svg>
